<?xml version="1.0" encoding="UTF-8" standalone="no"?>
<!-- Created with Inkscape (http://www.inkscape.org/) -->

<svg
   xmlns:dc="http://purl.org/dc/elements/1.1/"
   xmlns:cc="http://creativecommons.org/ns#"
   xmlns:rdf="http://www.w3.org/1999/02/22-rdf-syntax-ns#"
   xmlns:svg="http://www.w3.org/2000/svg"
   xmlns="http://www.w3.org/2000/svg"
   version="1.1"
   width="56"
   height="188"
   id="svg3064">
  <defs
     id="defs3066" />
  <metadata
     id="metadata3069">
    <rdf:RDF>
      <cc:Work
         rdf:about="">
        <dc:format>image/svg+xml</dc:format>
        <dc:type
           rdf:resource="http://purl.org/dc/dcmitype/StillImage" />
        <dc:title></dc:title>
      </cc:Work>
    </rdf:RDF>
  </metadata>
  <g
     transform="translate(-103.42857,-309.79075)"
     id="layer1">
    <path
       d="m 103.42857,497.79075 5,0 c 6,0 10,0 14,-1 4,-1 8,-4 11,-8 3,-4 4,-8 5,-13 1,-5 1,-14 1,-26 0,-9 0,-15 1,-20 1,-5 3,-10 6,-13 3,-3 7,-5 13,-5 l 0,-16 c -6,0 -10,-2 -13,-5 -3,-3 -5,-8 -6,-13 -1,-5 -1,-11 -1,-20 0,-12 0,-21 -1,-26 -1,-5 -2,-9 -5,-13 -3,-4 -7,-7 -11,-8 -4,-1 -8,-1 -14,-1 l -5,0 0,15 3,0 c 7,0 11,1 13,3 3,3 4,4 4,7 l 0,25 c 0,15 2,25 5,31 3,6 9,10 15,13 -6,3 -12,7 -15,13 -3,6 -5,16 -5,31 l 0,25 c 0,3 -1,4 -4,7 -2,2 -6,3 -13,3 l -3,0 0,15 z"
       id="llv" />
  </g>
</svg>
